<svg width="36" height="30" viewBox="0 0 36 30" fill="none" xmlns="http://www.w3.org/2000/svg">
<path d="M34.9733 21.1991L27.0982 18.3865C26.7618 18.267 26.3879 18.2419 26.0328 18.3148C25.6777 18.3877 25.3607 18.5548 25.1294 18.7908L21.6419 22.3417C16.1685 20.1911 11.7636 16.5204 9.18297 11.9593L13.444 9.05295C13.7278 8.86057 13.9287 8.59636 14.0163 8.30033C14.1038 8.00429 14.0732 7.69255 13.9291 7.4123L10.5541 0.849679C10.396 0.547569 10.1163 0.300907 9.76331 0.152225C9.41032 0.00354214 9.00614 -0.0378408 8.62046 0.0352115L1.30784 1.44149C0.935995 1.51304 0.604237 1.68751 0.366711 1.93643C0.129184 2.18534 -8.56569e-05 2.494 4.25834e-08 2.81202C4.25834e-08 17.8416 14.6182 30 32.6256 30C33.0073 30.0002 33.3779 29.8925 33.6767 29.6946C33.9755 29.4966 34.185 29.2201 34.2709 28.9101L35.9584 22.8163C36.0455 22.4933 35.9948 22.1552 35.815 21.86C35.6352 21.5648 35.3376 21.3311 34.9733 21.1991Z" fill="white"/>
</svg>
